#tb 0: 1/10
#media_type 0: video
#codec_id 0: rawvideo
#dimensions 0: 217x217
#sar 0: 0/1
0,          0,          0,        1,   188356, 0xf0944065
0,          1,          1,        1,   188356, 0x146ed4c4
0,          2,          2,        1,   188356, 0x96866a6f
0,          3,          3,        1,   188356, 0xe15e1f1c
0,          4,          4,        1,   188356, 0x0662c1d0
0,          5,          5,        1,   188356, 0x88fa6cc4
0,          6,          6,        1,   188356, 0x3cce2f71
0,          7,          7,        1,   188356, 0x1510f9f3
0,          8,          8,        1,   188356, 0xf27e9fa8
0,          9,          9,        1,   188356, 0x0f4b64a2
0,         10,         10,        1,   188356, 0x3d2714a5
0,         11,         11,        1,   188356, 0x392ce45d
0,         12,         12,        1,   188356, 0x2eadb79f
0,         13,         13,        1,   188356, 0x68109314
0,         14,         14,        1,   188356, 0x4eca71ac
0,         15,         15,        1,   188356, 0xa9aa5907
0,         16,         16,        1,   188356, 0x2a5d08c0
0,         17,         17,        1,   188356, 0x942bba84
0,         18,         18,        1,   188356, 0xbee38983
0,         19,         19,        1,   188356, 0xa0d65a5a
0,         20,         20,        1,   188356, 0x47270bee
0,         21,         21,        1,   188356, 0xc020dc40
0,         22,         22,        1,   188356, 0x978dbc8f
0,         23,         23,        1,   188356, 0x6b1e9f1b
0,         24,         24,        1,   188356, 0xd8078bf4
0,         25,         25,        1,   188356, 0x94ca7bd7
0,         26,         26,        1,   188356, 0xac745e77
0,         27,         27,        1,   188356, 0x73154f2c
0,         28,         28,        1,   188356, 0x31200601
0,         29,         29,        1,   188356, 0x6525dd42
0,         30,         30,        1,   188356, 0xa29b985a
0,         31,         31,        1,   188356, 0xe3e074d8
0,         32,         32,        1,   188356, 0xb87b3222
0,         33,         33,        1,   188356, 0x5b9a11f2
0,         34,         34,        1,   188356, 0x25f7f8c9
0,         35,         35,        1,   188356, 0x0235e93c
0,         36,         36,        1,   188356, 0x2a42d643
0,         37,         37,        1,   188356, 0xfb7acddb
0,         38,         38,        1,   188356, 0xecbbbf5e
0,         39,         39,        1,   188356, 0xeba4bc9a
0,         40,         40,        1,   188356, 0x4317b36b
0,         41,         41,        1,   188356, 0x7316ae1a
0,         42,         42,        1,   188356, 0xb5ccad05
0,         43,         43,        1,   188356, 0x38afb0dc
0,         44,         44,        1,   188356, 0xf11cad55
0,         45,         45,        1,   188356, 0x3d77b400
0,         46,         46,        1,   188356, 0xf084b9b9
0,         47,         47,        1,   188356, 0x02a4c584
0,         48,         48,        1,   188356, 0x14f4d52e
0,         49,         49,        1,   188356, 0x55118432
0,         50,         50,        1,   188356, 0x4ad82e9f
0,         51,         51,        1,   188356, 0xc6eafc52
0,         52,         52,        1,   188356, 0xf4bdc575
0,         53,         53,        1,   188356, 0x8429689e
0,         54,         54,        1,   188356, 0xaa23019e
0,         55,         55,        1,   188356, 0xaf52c3a5
0,         56,         56,        1,   188356, 0x1d387c32
0,         57,         57,        1,   188356, 0x543d5cd2
0,         58,         58,        1,   188356, 0x8cdb399c
0,         59,         59,        1,   188356, 0xcceb292f
0,         60,         60,        1,   188356, 0xa87115e8
0,         61,         61,        1,   188356, 0x9665ec8f
0,         62,         62,        1,   188356, 0xad99baf4
0,         63,         63,        1,   188356, 0xc6e5a2b5
0,         64,         64,        1,   188356, 0xe2a48359
0,         65,         65,        1,   188356, 0x3a270df0
0,         66,         66,        1,   188356, 0xcc34826b
0,         67,         67,        1,   188356, 0x15ec2dcc
0,         68,         68,        1,   188356, 0x8874c5f9
0,         69,         69,        1,   188356, 0x829966e8
0,         70,         70,        1,   188356, 0x691f1ebb
0,         71,         71,        1,   188356, 0x00e3e184
0,         72,         72,        1,   188356, 0x97739332
0,         73,         73,        1,   188356, 0x507769aa
0,         74,         74,        1,   188356, 0xddfb3069
0,         75,         75,        1,   188356, 0x7296f749
0,         76,         76,        1,   188356, 0x0555ca32
0,         77,         77,        1,   188356, 0x4554c683
0,         78,         78,        1,   188356, 0x2398c10f
0,         79,         79,        1,   188356, 0x1c5ccfa0
0,         80,         80,        1,   188356, 0xa580f3c8
0,         81,         81,        1,   188356, 0x4fadea78
0,         82,         82,        1,   188356, 0x4a57db38
0,         83,         83,        1,   188356, 0x9e98df6d
0,         84,         84,        1,   188356, 0xfeb3dec9
0,         85,         85,        1,   188356, 0xbf16ef7a
0,         86,         86,        1,   188356, 0xdc23fc48
0,         87,         87,        1,   188356, 0x3bf2e401
0,         88,         88,        1,   188356, 0xc832bcf4
0,         89,         89,        1,   188356, 0x977db44f
0,         90,         90,        1,   188356, 0x18d39d96
0,         91,         91,        1,   188356, 0x9adf60d8
0,         92,         92,        1,   188356, 0x567b667a
0,         93,         93,        1,   188356, 0xd4a45e8e
0,         94,         94,        1,   188356, 0x94a24cc7
0,         95,         95,        1,   188356, 0x086f0a53
0,         96,         96,        1,   188356, 0xcbf3ebcb
0,         97,         97,        1,   188356, 0x1a40a7b9
0,         98,         98,        1,   188356, 0xe16d8964
0,         99,         99,        1,   188356, 0x3edd7dfa
0,        100,        100,        1,   188356, 0xba417fa5
0,        101,        101,        1,   188356, 0x734a7611
0,        102,        102,        1,   188356, 0xfa1e7b1e
0,        103,        103,        1,   188356, 0x1af23355
0,        104,        104,        1,   188356, 0x28d41390
0,        105,        105,        1,   188356, 0x2838c58d
0,        106,        106,        1,   188356, 0x4e2ba2a8
0,        107,        107,        1,   188356, 0xcedc99ae
0,        108,        108,        1,   188356, 0xb06ba12d
0,        109,        109,        1,   188356, 0x38c997b6
0,        110,        110,        1,   188356, 0x12dba0dc
0,        111,        111,        1,   188356, 0x5f86496a
0,        112,        112,        1,   188356, 0x0b74216d
0,        113,        113,        1,   188356, 0xdbddbada
0,        114,        114,        1,   188356, 0x7d168af2
0,        115,        115,        1,   188356, 0x22d4462b
0,        116,        116,        1,   188356, 0xc248265d
0,        117,        117,        1,   188356, 0x37a41b0d
0,        118,        118,        1,   188356, 0x9ebd24f1
0,        119,        119,        1,   188356, 0xf21f1633
0,        120,        120,        1,   188356, 0x1db62004
0,        121,        121,        1,   188356, 0xcc241ac1
0,        122,        122,        1,   188356, 0x224d2637
0,        123,        123,        1,   188356, 0x1bd8390c
0,        124,        124,        1,   188356, 0xd8e64966
0,        125,        125,        1,   188356, 0x96e66287
0,        126,        126,        1,   188356, 0xa83c9a32
0,        127,        127,        1,   188356, 0x3a5faeba
0,        128,        128,        1,   188356, 0x8200cd87
0,        129,        129,        1,   188356, 0x6326e591
0,        130,        130,        1,   188356, 0xb5d70993
0,        131,        131,        1,   188356, 0x954d5da2
0,        132,        132,        1,   188356, 0x38b1788b
0,        133,        133,        1,   188356, 0x4aafa131
0,        134,        134,        1,   188356, 0xaff2be78
0,        135,        135,        1,   188356, 0x9bd7eb69
0,        136,        136,        1,   188356, 0x0d2b17c9
0,        137,        137,        1,   188356, 0xf5d8a764
0,        138,        138,        1,   188356, 0xa302dfb2
0,        139,        139,        1,   188356, 0xe8a32ac1
0,        140,        140,        1,   188356, 0x50a8470d
0,        141,        141,        1,   188356, 0x52826061
0,        142,        142,        1,   188356, 0x26e88798
0,        143,        143,        1,   188356, 0x1448acb8
0,        144,        144,        1,   188356, 0xfb380972
0,        145,        145,        1,   188356, 0x184976e8
0,        146,        146,        1,   188356, 0xa349a871
0,        147,        147,        1,   188356, 0x617ed8b1
0,        148,        148,        1,   188356, 0xb6bc1425
0,        149,        149,        1,   188356, 0xafe74efd
0,        150,        150,        1,   188356, 0x0b8b61e5
0,        151,        151,        1,   188356, 0xc6ad67a7
0,        152,        152,        1,   188356, 0x4da186fe
0,        153,        153,        1,   188356, 0xe08f9975
0,        154,        154,        1,   188356, 0xa43f8ba4
0,        155,        155,        1,   188356, 0xcad4b6b5
0,        156,        156,        1,   188356, 0x7e70d51e
0,        157,        157,        1,   188356, 0x429b0b5b
0,        158,        158,        1,   188356, 0xea92350d
0,        159,        159,        1,   188356, 0x9a7440f8
0,        160,        160,        1,   188356, 0x63a2be6e
0,        161,        161,        1,   188356, 0x59b64b50
0,        162,        162,        1,   188356, 0x63c4a10e
0,        163,        163,        1,   188356, 0x6146e5e0
0,        164,        164,        1,   188356, 0x603b2ae5
0,        165,        165,        1,   188356, 0x818bc774
0,        166,        166,        1,   188356, 0xa5ce278f
0,        167,        167,        1,   188356, 0x4d85684d
0,        168,        168,        1,   188356, 0xbbda9cad
0,        169,        169,        1,   188356, 0xfee2e78e
0,        170,        170,        1,   188356, 0x681d2635
0,        171,        171,        1,   188356, 0x05354903
0,        172,        172,        1,   188356, 0x8eecac99
